Patient4_TMGait_0pt3_03_right_12_GRF.mot
version=1
nRows=51
nColumns=19
inDegrees=no
endheader
time	F1x	F1y	F1z	M1x	M1y	M1z	F2x	F2y	F2z	M2x	M2y	M2z	EC1x	EC1y	EC1z	EC2x	EC2y	EC2z
22.75	-7.7083	797.5368	51.6467	-278.721	-52.6844	819.047	-0.98415	-8.2465	0.6651	-1.4339	-2.349	-6.6439	-0.0592	0.0182	-0.0073	-0.0462	0.0165	0.9585
22.7688	-8.708	810.4753	51.8482	-283.4657	-52.9928	831.2478	-0.65873	-5.1887	0.39014	-0.81481	-1.523	-4.0441	-0.0592	0.0182	-0.0073	-0.0462	0.0165	0.9585
22.7876	-9.7111	825.6533	51.8887	-289.0494	-53.0553	844.8421	-0.39156	-2.5633	0.17416	-0.28448	-0.83201	-1.8207	-0.0592	0.0182	-0.0073	-0.0462	0.0165	0.9585
22.8064	-10.404	841.6935	51.7209	-294.9772	-52.7266	858.3317	-0.19367	-0.53112	0.01686	0.1273	-0.30904	-0.10596	-0.0592	0.0182	-0.0073	-0.0462	0.0165	0.9585
22.8251	-10.4597	856.5285	51.3706	-300.4974	-51.9382	869.6436	-0.062879	0.90275	-0.091035	0.42063	0.052906	1.1015	-0.0592	0.0182	-0.0073	-0.0462	0.0165	0.9585
22.8439	-9.6473	867.5933	50.9194	-304.6656	-50.7153	876.3296	0.0099725	1.8121	-0.16284	0.6093	0.28385	1.8661	-0.0592	0.0182	-0.0073	-0.0462	0.0165	0.9585
22.8627	-7.8799	872.3501	50.4488	-306.537	-49.1364	876.0686	0.038883	2.2961	-0.20955	0.70995	0.41921	2.2672	-0.0592	0.0182	-0.0073	-0.0462	0.0165	0.9585
22.8815	-5.2181	868.9427	49.9856	-305.4146	-47.2788	867.2874	0.035838	2.4465	-0.23837	0.73511	0.48852	2.3776	-0.0592	0.0182	-0.0073	-0.0462	0.0165	0.9585
22.9003	-1.8277	856.7415	49.4999	-301.0511	-45.1942	849.643	0.0091385	2.329	-0.25539	0.69028	0.51591	2.2454	-0.0592	0.0182	-0.0073	-0.0462	0.0165	0.9585
22.9191	2.0851	836.5894	48.9271	-293.7459	-42.9041	824.2131	-0.034933	1.9779	-0.26219	0.57276	0.51743	1.8858	-0.0592	0.0182	-0.0073	-0.0462	0.0165	0.9585
22.9379	6.3268	810.6956	48.2046	-284.305	-40.4215	793.3524	-0.087437	1.3996	-0.25924	0.37319	0.50368	1.2962	-0.0592	0.0182	-0.0073	-0.0462	0.0165	0.9585
22.9566	10.7284	782.2064	47.3169	-273.8779	-37.7898	760.2507	-0.14019	0.58411	-0.24555	0.081193	0.4795	0.46137	-0.0592	0.0182	-0.0073	-0.0462	0.0165	0.9585
22.9754	15.1561	754.5954	46.3209	-263.7289	-35.1034	728.3311	-0.18272	-0.47235	-0.21834	-0.30663	0.43869	-0.62552	-0.0592	0.0182	-0.0073	-0.0462	0.0165	0.9585
22.9942	19.4964	731.0429	45.3405	-255.0081	-32.5054	700.6668	-0.19659	-1.7381	-0.16998	-0.77853	0.36593	-1.9365	-0.0592	0.0182	-0.0073	-0.0462	0.0165	0.9585
23.013	23.6333	713.9112	44.5469	-248.563	-30.1777	679.5045	-0.15765	-3.1043	-0.090269	-1.2926	0.24369	-3.3644	-0.0592	0.0182	-0.0073	-0.0462	0.0165	0.9585
23.0318	27.456	704.4184	44.1119	-244.8232	-28.2975	665.9745	-0.035326	-4.3377	0.028625	-1.7589	0.055872	-4.6642	-0.0592	0.0182	-0.0073	-0.0462	0.0165	0.9585
23.0506	30.8641	702.5334	44.1589	-243.7684	-26.9954	660.0096	0.20271	-5.029	0.19048	-2.0211	-0.21133	-5.3997	-0.0592	0.0182	-0.0073	-0.0462	0.0165	0.9585
23.0694	33.781	707.0779	44.7398	-244.9689	-26.334	660.4604	0.58546	-4.547	0.388	-1.8382	-0.56147	-4.8967	-0.0592	0.0182	-0.0073	-0.0462	0.0165	0.9585
23.0881	36.152	715.9289	45.8452	-247.6618	-26.3179	665.3029	1.1327	-2.0223	0.59811	-0.87804	-0.97547	-2.2263	-0.0592	0.0182	-0.0073	-0.0462	0.0165	0.9585
23.1069	37.9312	726.3553	47.4002	-250.8729	-26.8965	671.9693	1.8464	3.6288	0.77888	1.273	-1.4045	3.7777	-0.0592	0.0182	-0.0073	-0.0462	0.0165	0.9585
23.1257	39.0856	735.4703	49.2579	-253.5806	-27.9538	677.7761	2.6876	13.6036	0.86379	5.072	-1.7559	14.411	-0.0592	0.0182	-0.0073	-0.0462	0.0165	0.9585
23.1445	39.618	740.6331	51.2138	-254.8606	-29.3162	680.2838	3.5476	28.9954	0.75697	10.9367	-1.8762	30.8679	-0.0592	0.0182	-0.0073	-0.0462	0.0165	0.9585
23.1633	39.5586	739.7225	53.0312	-253.9817	-30.7796	677.5475	4.2009	50.4407	0.32924	19.1094	-1.5342	53.8616	-0.0592	0.0182	-0.0073	-0.0462	0.0165	0.9585
23.1821	38.9295	731.2735	54.4589	-250.4528	-32.1352	668.2462	4.177	77.6733	-0.54566	29.4882	-0.41904	83.135	-0.0592	0.0182	-0.0073	-0.0462	0.0165	0.9585
23.2009	37.7606	714.5834	55.2595	-244.0617	-33.1785	651.7594	2.9084	109.1516	-1.9675	41.4833	1.7775	117.0564	-0.0592	0.0182	-0.0073	-0.0462	0.0165	0.9585
23.2196	36.1591	689.878	55.2525	-234.929	-33.7246	628.2709	0.32307	142.2027	-3.9978	54.0665	5.1281	152.732	-0.0592	0.0182	-0.0073	-0.0462	0.0165	0.9585
23.2384	34.3491	658.4199	54.3735	-223.5381	-33.6452	598.851	-3.2129	174.4772	-6.5596	66.3373	9.3859	187.548	-0.0592	0.0182	-0.0073	-0.0462	0.0165	0.9585
23.2572	32.6393	622.2763	52.6988	-210.6432	-32.8992	565.2763	-7.2639	205.6922	-9.4085	78.1941	14.1137	221.1162	-0.0592	0.0182	-0.0073	-0.0462	0.0165	0.9585
23.276	31.2889	583.6851	50.375	-197.0446	-31.5182	529.4943	-11.4274	236.7919	-12.3112	90.0111	18.915	254.3831	-0.0592	0.0182	-0.0073	-0.0462	0.0165	0.9585
23.2948	30.3801	544.4319	47.5308	-183.372	-29.5753	493.0986	-15.3147	268.5158	-15.0584	102.086	23.434	288.0743	-0.0592	0.0182	-0.0073	-0.0462	0.0165	0.9585
23.3136	29.824	505.5911	44.2779	-169.9947	-27.1849	457.0979	-18.6103	300.9054	-17.51	114.4408	27.4178	322.1847	-0.0592	0.0182	-0.0073	-0.0462	0.0165	0.9585
23.3324	29.4482	467.5924	40.7492	-157.044	-24.5062	421.9366	-21.1311	333.4595	-19.6352	126.8747	30.7769	356.1607	-0.0592	0.0182	-0.0073	-0.0462	0.0165	0.9585
23.3511	29.0559	430.4141	37.0932	-144.4838	-21.718	387.6485	-22.8416	365.4875	-21.5229	139.0997	33.5931	389.2754	-0.0592	0.0182	-0.0073	-0.0462	0.0165	0.9585
23.3699	28.4661	393.8103	33.4415	-132.194	-18.9803	354.0556	-23.8591	396.5057	-23.3441	150.9013	36.0813	421.042	-0.0592	0.0182	-0.0073	-0.0462	0.0165	0.9585
23.3887	27.5447	357.5099	29.8908	-120.0458	-16.4134	320.933	-24.3966	426.5693	-25.2607	162.2766	38.4785	451.5485	-0.0592	0.0182	-0.0073	-0.0462	0.0165	0.9585
23.4075	26.1918	321.2998	26.491	-107.9341	-14.0906	288.0899	-24.659	456.288	-27.3725	173.4442	40.9526	481.4598	-0.0592	0.0182	-0.0073	-0.0462	0.0165	0.9585
23.4263	24.3208	285.0144	23.2566	-95.7779	-12.0537	255.3725	-24.799	486.5436	-29.7226	184.7309	43.5963	511.7149	-0.0592	0.0182	-0.0073	-0.0462	0.0165	0.9585
23.4451	21.8567	248.6	20.192	-83.5441	-10.334	222.7128	-24.9344	518.1246	-32.3252	196.4298	46.4609	543.1473	-0.0592	0.0182	-0.0073	-0.0462	0.0165	0.9585
23.4639	18.7659	212.2781	17.31	-71.305	-8.9577	190.275	-25.1506	551.4284	-35.17	208.6873	49.5579	576.1789	-0.0592	0.0182	-0.0073	-0.0462	0.0165	0.9585
23.4826	15.1271	176.6829	14.6425	-59.2811	-7.9284	158.5735	-25.4772	586.2211	-38.2067	221.415	52.8363	610.5708	-0.0592	0.0182	-0.0073	-0.0462	0.0165	0.9585
23.5014	11.1811	142.8027	12.2388	-47.8207	-7.2085	128.4257	-25.8947	621.5359	-41.325	234.2536	56.1681	645.3312	-0.0592	0.0182	-0.0073	-0.0462	0.0165	0.9585
23.5202	7.2838	111.6958	10.1383	-37.2985	-6.7128	100.7201	-26.3619	655.7813	-44.3568	246.6156	59.3646	678.8317	-0.0592	0.0182	-0.0073	-0.0462	0.0165	0.9585
23.539	3.7716	84.1537	8.3346	-27.9992	-6.3257	76.1304	-26.8292	687.124	-47.1128	257.828	62.2155	709.2043	-0.0592	0.0182	-0.0073	-0.0462	0.0165	0.9585
23.5578	0.88322	60.5948	6.7769	-20.0748	-5.9269	55.0257	-27.2342	713.9943	-49.4315	267.3169	64.5351	734.8572	-0.0592	0.0182	-0.0073	-0.0462	0.0165	0.9585
23.5766	-1.2399	41.1547	5.3995	-13.5682	-5.4153	37.543	-27.4911	735.408	-51.2213	274.7247	66.2002	754.7964	-0.0592	0.0182	-0.0073	-0.0462	0.0165	0.9585
23.5954	-2.5303	25.7703	4.145	-8.4474	-4.7221	23.6509	-27.4828	751.0202	-52.4824	279.9289	67.1679	768.6728	-0.0592	0.0182	-0.0073	-0.0462	0.0165	0.9585
23.6141	-3.0006	14.2202	2.9912	-4.6255	-3.8352	13.1759	-27.097	761.0471	-53.2913	283.0114	67.4782	776.7051	-0.0592	0.0182	-0.0073	-0.0462	0.0165	0.9585
23.6329	-2.8166	6.1497	1.9761	-1.971	-2.8476	5.8177	-26.2841	766.1903	-53.7666	284.2317	67.2377	779.6121	-0.0592	0.0182	-0.0073	-0.0462	0.0165	0.9585
23.6517	-2.282	1.0631	1.1694	-0.3087	-1.9253	1.1539	-25.0709	767.608	-54.0446	284.0217	66.6015	778.5871	-0.0592	0.0182	-0.0073	-0.0462	0.0165	0.9585
23.6705	-1.6328	-1.6973	0.58725	0.58492	-1.1648	-1.3932	-23.5297	766.9093	-54.2509	282.9874	65.7353	775.2667	-0.0592	0.0182	-0.0073	-0.0462	0.0165	0.9585
23.6893	-1.0104	-2.8068	0.20321	0.93643	-0.59438	-2.4327	-21.7575	766.0035	-54.4665	281.8577	64.7721	771.5723	-0.0592	0.0182	-0.0073	-0.0462	0.0165	0.9585
